<mxfile host="app.diagrams.net" modified="2022-05-25T03:17:01.169Z" agent="5.0 (Windows NT 6.2; Win64; x64) AppleWebKit/537.36 (KHTML, like Gecko) Chrome/101.0.4951.67 Safari/537.36" etag="L99UebjSs39HbeiGErvA" version="18.1.1" type="github">
  <diagram id="TXAaZlh6UaU68Wor_zhq" name="Page-1">
    <mxGraphModel dx="942" dy="558" grid="1" gridSize="10" guides="1" tooltips="1" connect="1" arrows="1" fold="1" page="1" pageScale="1" pageWidth="827" pageHeight="1169" math="0" shadow="0">
      <root>
        <mxCell id="0" />
        <mxCell id="1" parent="0" />
        <mxCell id="e3Zxd4bvWFJk52f1fWkb-1" value="服务拓扑" style="swimlane;childLayout=stackLayout;resizeParent=1;resizeParentMax=0;startSize=20;" vertex="1" parent="1">
          <mxGeometry x="120" y="60" width="510" height="470" as="geometry" />
        </mxCell>
        <mxCell id="e3Zxd4bvWFJk52f1fWkb-2" value="终端用户" style="swimlane;startSize=20;" vertex="1" parent="e3Zxd4bvWFJk52f1fWkb-1">
          <mxGeometry y="20" width="160" height="450" as="geometry" />
        </mxCell>
        <mxCell id="e3Zxd4bvWFJk52f1fWkb-9" value="查看服务拓扑" style="rounded=0;whiteSpace=wrap;html=1;" vertex="1" parent="e3Zxd4bvWFJk52f1fWkb-2">
          <mxGeometry x="20" y="180" width="120" height="60" as="geometry" />
        </mxCell>
        <mxCell id="e3Zxd4bvWFJk52f1fWkb-3" value="技术服务平台" style="swimlane;startSize=20;" vertex="1" parent="e3Zxd4bvWFJk52f1fWkb-1">
          <mxGeometry x="160" y="20" width="180" height="450" as="geometry" />
        </mxCell>
        <mxCell id="e3Zxd4bvWFJk52f1fWkb-10" value="发起查询请求" style="whiteSpace=wrap;html=1;rounded=0;" vertex="1" parent="e3Zxd4bvWFJk52f1fWkb-3">
          <mxGeometry x="30" y="180" width="120" height="60" as="geometry" />
        </mxCell>
        <mxCell id="e3Zxd4bvWFJk52f1fWkb-4" value="业务服务" style="swimlane;startSize=20;" vertex="1" parent="e3Zxd4bvWFJk52f1fWkb-1">
          <mxGeometry x="340" y="20" width="170" height="450" as="geometry" />
        </mxCell>
        <mxCell id="e3Zxd4bvWFJk52f1fWkb-6" value="服务启动时解析&lt;br&gt;Feign模块调用关系" style="rounded=0;whiteSpace=wrap;html=1;" vertex="1" parent="e3Zxd4bvWFJk52f1fWkb-4">
          <mxGeometry x="25" y="50" width="120" height="60" as="geometry" />
        </mxCell>
        <mxCell id="e3Zxd4bvWFJk52f1fWkb-14" value="返回Feign调用关系" style="whiteSpace=wrap;html=1;rounded=0;" vertex="1" parent="e3Zxd4bvWFJk52f1fWkb-4">
          <mxGeometry x="25" y="180" width="120" height="60" as="geometry" />
        </mxCell>
        <mxCell id="e3Zxd4bvWFJk52f1fWkb-11" value="" style="edgeStyle=orthogonalEdgeStyle;rounded=0;orthogonalLoop=1;jettySize=auto;html=1;" edge="1" parent="e3Zxd4bvWFJk52f1fWkb-1" source="e3Zxd4bvWFJk52f1fWkb-9" target="e3Zxd4bvWFJk52f1fWkb-10">
          <mxGeometry relative="1" as="geometry" />
        </mxCell>
        <mxCell id="e3Zxd4bvWFJk52f1fWkb-15" value="" style="edgeStyle=orthogonalEdgeStyle;rounded=0;orthogonalLoop=1;jettySize=auto;html=1;" edge="1" parent="e3Zxd4bvWFJk52f1fWkb-1" source="e3Zxd4bvWFJk52f1fWkb-10" target="e3Zxd4bvWFJk52f1fWkb-14">
          <mxGeometry relative="1" as="geometry" />
        </mxCell>
      </root>
    </mxGraphModel>
  </diagram>
</mxfile>
